<?xml version="1.0" encoding="UTF-8" standalone="no"?>
<!-- Created with Inkscape (http://www.inkscape.org/) -->

<svg
   width="100"
   height="85.648712"
   id="svg1813"
   sodipodi:version="0.32"
   inkscape:version="1.4.2 (ebf0e940d0, 2025-05-08)"
   sodipodi:docname="boognish.svg"
   version="1.1"
   xmlns:inkscape="http://www.inkscape.org/namespaces/inkscape"
   xmlns:sodipodi="http://sodipodi.sourceforge.net/DTD/sodipodi-0.dtd"
   xmlns="http://www.w3.org/2000/svg"
   xmlns:svg="http://www.w3.org/2000/svg"
   xmlns:rdf="http://www.w3.org/1999/02/22-rdf-syntax-ns#"
   xmlns:cc="http://creativecommons.org/ns#"
   xmlns:dc="http://purl.org/dc/elements/1.1/">
  <defs
     id="defs1815" />
  <sodipodi:namedview
     id="base"
     pagecolor="#ffffff"
     bordercolor="#666666"
     borderopacity="1.0"
     inkscape:pageopacity="0.0"
     inkscape:pageshadow="2"
     inkscape:zoom="0.35"
     inkscape:cx="334.28571"
     inkscape:cy="485.71429"
     inkscape:document-units="px"
     inkscape:current-layer="layer1"
     inkscape:window-width="1920"
     inkscape:window-height="1008"
     inkscape:window-x="1920"
     inkscape:window-y="0"
     inkscape:showpageshadow="0"
     inkscape:pagecheckerboard="0"
     inkscape:deskcolor="#505050"
     inkscape:window-maximized="1" />
  <metadata
     id="metadata1818">
    <rdf:RDF>
      <cc:Work
         rdf:about="">
        <dc:format>image/svg+xml</dc:format>
        <dc:type
           rdf:resource="http://purl.org/dc/dcmitype/StillImage" />
      </cc:Work>
    </rdf:RDF>
  </metadata>
  <g
     inkscape:label="Layer 1"
     inkscape:groupmode="layer"
     id="layer1"
     transform="translate(-39.17836,-35.182905)">
    <path
       style="fill:#000000;fill-opacity:1;fill-rule:evenodd;stroke:none;stroke-width:0.150547pt;stroke-linecap:butt;stroke-linejoin:miter;stroke-opacity:1"
       d="m 72.57817,35.193575 c -0.222698,0.44541 -0.109081,1.276082 -0.109097,2.389613 0.05569,0.668128 -0.168475,3.455777 -0.05713,4.290918 0.111341,0.835143 0.110559,0.720102 0.166229,2.223368 0.05567,1.503265 0.167696,1.563371 0.223368,2.342855 0.222721,0.946503 0.05489,1.66567 0.166236,2.779214 0.111358,1.113546 0.281998,1.839262 0.337669,3.231169 0.05567,1.391904 0.164772,1.279797 0.1091,2.337662 -0.05569,1.057843 -0.05782,1.116185 -0.280537,0.893483 -0.222703,-0.222679 0.168078,-0.170382 -0.945433,-1.116863 C 71.075041,53.61849 70.353588,52.727751 69.51843,52.003947 68.68329,51.280145 69.074319,51.395739 67.793755,50.393556 66.513209,49.391392 66.568168,49.669603 65.398962,48.61176 64.229759,47.553897 64.171778,47.43798 63.336635,46.658519 62.501479,45.879036 61.612081,45.158806 61.222344,44.824745 60.832611,44.490683 59.94321,43.653903 59.108053,42.98578 c -0.835139,-0.668101 -0.726089,-0.609676 -2.062327,-1.66752 -0.739521,-0.640144 -0.942559,-0.827845 -1.662349,-1.054567 -0.77947,-0.167015 -1.010052,-0.05951 -0.898693,0.441593 0.111345,0.501061 0.443561,2.950914 1.111671,4.342841 0.668125,1.391903 2.115653,4.509498 2.561059,5.511682 0.445408,1.002163 1.671131,4.230564 2.005193,4.898688 0.334062,0.6681 1.951649,4.896305 2.285711,5.397385 0.334062,0.501103 0.555717,1.674732 0.945453,2.342856 0.389733,0.668122 -0.670668,-0.05768 -1.283105,-0.670124 -0.612455,-0.612441 -2.056894,-1.335607 -2.836376,-1.948049 -0.779472,-0.612442 -1.839492,-1.002354 -2.451947,-1.781816 -0.612455,-0.779463 -2.557984,-1.947261 -2.836361,-2.114282 -0.278389,-0.16702 -0.668822,-0.445571 -1.309085,-0.696102 -0.139203,-0.361912 -1.42392,-1.089991 -2.036359,-1.646753 -0.612455,-0.556763 -1.812876,-1.150184 -2.202594,-1.428565 -0.389736,-0.278379 -1.690331,-0.964652 -2.358455,-1.298693 -0.66811,-0.334081 -1.28432,-0.443697 -2.119478,-0.722078 -0.835141,-0.278383 -1.169236,-0.60555 -2.17141,-0.71689 -1.002189,-0.111361 -1.722293,-0.454209 -2.223374,-0.342849 -0.501093,0.111341 -0.446086,0.389468 -0.223382,0.779208 0.222702,0.389742 1.280062,2.060752 1.558437,2.394813 0.278377,0.334039 1.281529,1.558967 1.615593,2.171431 0.334045,0.612419 0.776825,1.392053 1.277904,1.781795 0.501093,0.38974 1.16872,1.223586 1.558437,1.724668 0.389751,0.501103 1.056698,1.448434 1.335073,2.005197 0.278375,0.556764 1.060286,1.561926 1.672723,2.285707 0.61244,0.723803 1.392206,1.781839 1.392206,1.781839 0,0 0.609928,1.670327 0.88832,2.171429 0.278374,0.501084 3.676316,5.453599 4.010378,6.010361 0.334049,0.556763 0.667729,1.279268 1.168821,1.724689 0.501098,0.445402 1.056701,0.839144 1.335071,1.340245 0.278396,0.501082 1.058161,1.780903 1.392208,2.337666 0.334063,0.55676 1.337215,2.672937 1.615591,3.174017 0.278373,0.501084 0.448214,0.72489 0.503886,1.225972 0.05569,0.50108 0.05556,0.496974 0.389619,1.220777 0.237965,0.51557 0.407672,0.815186 0.602595,1.184417 -0.0059,0.01149 -0.01,0.03591 -0.01559,0.04677 -0.08543,0.665696 -0.365099,1.219032 -0.420773,1.942857 -0.05567,0.72376 -0.44489,2.282366 -0.472734,3.340231 -0.02783,0.946505 0.192216,4.564646 0.192216,4.898709 0,0.33406 0.278922,1.95139 0.612987,3.064936 0.334062,1.113523 0.836239,2.560759 1.22597,3.340249 0.389737,0.77946 0.90245,1.51543 1.948059,2.88311 2.115705,2.33838 4.620728,4.91389 5.901292,6.0831 1.280547,1.1692 4.526668,3.85363 5.194777,4.41039 0.668127,0.55676 4.118721,2.51694 5.812988,3.0857 1.336234,0.38972 2.023329,0.62844 3.303891,1.01819 1.280554,0.38972 2.461954,0.49565 3.631158,0.77401 1.169208,0.27838 1.350397,0.44968 2.129867,0.56104 0.77947,0.11136 3.153244,0.22857 3.153244,0.22857 4.61749,0.051 3.221436,-0.18578 5.662329,-0.42597 2.552242,-0.24017 6.007412,-1.68422 6.794792,-2.07792 0.78739,-0.39368 1.32007,-0.77981 2.26494,-1.72467 1.16756,-0.66649 4.69832,-3.73208 5.4857,-4.51948 0.78738,-0.78738 1.49202,-1.49475 1.88571,-2.12466 0.39369,-0.62991 3.46798,-6.8517 4.17662,-7.87531 0.70865,-1.02361 1.49202,-3.857583 1.88571,-4.566237 0.044,-0.147105 0.0692,-0.302551 0.10909,-0.451933 0.54996,-0.677357 1.30102,-1.534435 1.78182,-2.301323 0.70864,-1.417289 2.12935,-2.679448 2.68051,-3.781802 0.55117,-1.102353 1.33841,-2.99419 2.51948,-4.805179 1.18108,-1.810986 3.54345,-5.195981 4.48831,-7.085693 0.94486,-1.889729 2.16672,-4.406667 3.22597,-6.768843 1.41729,-2.36213 2.93283,-4.666859 2.14545,-4.981792 -0.5487,-0.434316 -0.86323,-0.365552 -2.01039,0.07791 -2.04225,1.338542 -2.65268,1.911965 -3.83376,2.384408 -1.18107,0.472422 -2.44378,1.338118 -3.23116,2.046752 -0.78739,0.708654 -1.35284,1.203395 -1.96364,1.662349 -0.88918,0.570249 -1.96365,1.423032 -2.05194,0.618165 0.0787,-1.417288 0.66789,-3.351189 0.86753,-5.194813 0.0326,-1.175479 -0.0796,-4.25297 0.0779,-5.906467 0.15748,-1.653497 0.5534,-7.556051 0.78961,-9.288293 0.23622,-1.732264 0.3655,-4.662307 0.25974,-6.0987 -0.32846,-1.213694 -0.57803,-1.38316 -1.44415,-0.753251 -0.86612,0.629911 -3.84572,2.913661 -4.06753,3.314275 -0.22181,0.400635 -1.56204,1.753454 -1.8961,2.254559 -0.89082,0.668121 -1.33561,1.336394 -1.94805,1.781815 -0.61244,0.445401 -1.66954,1.449096 -2.33766,2.228557 -0.66812,0.779464 -0.66547,0.834633 -1.27792,1.558458 -0.61244,0.723781 -0.93494,1.057333 -1.32467,1.558436 -0.38974,0.50108 -1.62598,1.667539 -1.62598,1.667539 0,0 -0.16917,-1.292478 -0.28051,-2.238961 0.11135,-0.723826 0.21938,-3.032872 0.22337,-3.776633 -0.0557,-0.445421 -0.3948,-2.28694 -0.3948,-3.122083 0,-0.835143 -0.12135,-1.898242 -0.16104,-2.498683 -0.21871,-1.376181 -0.33314,-2.672022 -0.55585,-3.729866 -0.17901,-1.399927 -0.33539,-2.338091 -0.44675,-3.340274 -0.11135,-1.002164 -0.5023,-2.171176 -0.83636,-2.95063 -0.33406,-0.779468 -0.39095,-1.168027 -0.83636,-1.335062 -0.44541,-0.167035 -2.22551,2.619513 -2.5039,3.064935 -0.27838,0.445401 -0.88897,1.499691 -1.11168,1.833753 -0.22271,0.33406 -0.50524,1.172969 -0.95065,2.119495 -0.44541,0.946482 -0.88739,1.667265 -1.44415,2.446748 -0.55677,0.779463 -0.39016,0.946651 -1.0026,1.781816 -0.61244,0.835144 -1.001,1.947114 -1.33506,2.503875 -0.334061,0.556762 -0.612066,1.001568 -1.168832,1.948071 -0.556766,0.946503 -0.672267,1.284439 -0.950648,1.729839 -0.278384,0.445424 -0.721281,1.281543 -0.888311,1.615604 -0.167027,0.334041 -1.167237,-3.452057 -1.501297,-4.342861 -0.334056,-0.890824 -0.727943,-2.174899 -0.950647,-2.898701 -0.222708,-0.723783 -0.665605,-3.059489 -0.888312,-3.83895 -0.222704,-0.779465 -0.55651,-1.451352 -0.779217,-2.119475 -0.222707,-0.668101 -0.277464,-1.278352 -0.555845,-2.280516 -0.278384,-1.002183 -0.391746,-1.835778 -0.670129,-2.50389 -0.278383,-0.668128 -0.446628,-1.449367 -0.836362,-1.449367 -0.389736,0 -0.537203,-0.121064 -0.815585,0.212998 -0.278382,0.33405 -1.356509,2.405738 -1.579219,3.01818 -0.222704,0.612422 -1.000331,2.394684 -1.111686,2.784405 -0.111351,0.389742 -0.220988,1.334691 -0.722074,2.503897 -0.501091,1.169204 -0.393214,1.500117 -0.727274,2.836362 -0.334061,1.336224 -0.167576,1.562456 -0.612987,2.898701 -0.445408,1.336224 -0.386544,2.393452 -0.664935,1.94805 -0.278373,-0.44542 -1.281511,-2.562257 -1.615573,-3.397401 -0.334065,-0.835162 -1.223597,-2.562257 -1.724674,-3.397401 -0.501096,-0.835162 -1.561247,-2.393088 -2.062344,-3.11687 -0.501094,-0.723781 -1.168704,-1.780115 -1.55844,-2.503897 -0.389733,-0.723802 -1.692573,-2.787886 -2.249338,-3.511678 -0.556766,-0.723799 -1.312698,-2.277474 -1.64676,-2.555847 -0.334044,-0.278381 -1.059605,-0.445292 -1.449341,-0.389625 z m 1.745455,2.940258 c 0.01224,-0.0081 0.02957,0.0072 0.05195,0.05196 0.179017,0.358032 1.135259,2.026394 1.314276,2.384433 0.179018,0.35802 0.595416,1.13312 1.132466,1.729839 0.537052,0.596741 1.252356,1.790348 1.610385,2.446769 0.358037,0.656401 0.956244,1.85256 1.314296,2.3896 0.35803,0.53706 1.075596,1.432183 1.314274,2.32726 0.238695,0.8951 1.194937,2.504301 1.314293,2.86234 0.119338,0.35804 0.655076,1.671286 1.132464,2.685706 0.477374,1.014437 0.475662,1.668219 0.774019,2.264939 0.298372,0.596719 1.192678,1.914092 1.610388,1.735051 0.417706,-0.178999 0.600336,-0.481529 0.898701,-1.376607 0.298361,-0.895099 0.592611,-3.102785 0.950648,-4.415585 0.358035,-1.312798 0.538,-2.863425 0.836363,-3.818163 0.298361,-0.954781 0.537865,-2.444897 0.716883,-3.101318 0.179015,-0.656378 0.478054,-2.088984 0.597402,-2.685704 0.119343,-0.596719 0.418248,-1.195608 0.477921,-1.911666 0.05967,-0.716102 0.298901,-2.087785 0.477921,-1.610404 0.179016,0.47739 0.834103,3.520219 1.132466,4.176618 0.298361,0.656401 1.015785,4.356587 1.194802,5.012964 0.179017,0.656422 0.59234,2.626725 0.711688,3.283125 0.119343,0.65642 0.418383,1.969517 0.597401,2.566237 0.179017,0.596718 0.241895,1.492137 0.540261,2.566215 0.298361,1.074121 0.776956,2.507109 1.075321,3.04417 0.298363,0.537037 0.891246,1.490628 1.189611,1.251948 0.298362,-0.23868 1.075727,-1.432055 1.433761,-2.207795 0.358037,-0.775757 1.073338,-2.325684 1.610384,-3.220782 0.53705,-0.895079 1.49384,-2.387601 1.79221,-2.924661 0.29836,-0.537059 0.77163,-0.655761 0.95064,-1.72988 0.17902,-1.074098 1.25502,-3.46306 1.67273,-4.119458 0.41771,-0.656423 0.95372,-1.730543 1.37143,-2.327281 0.41771,-0.59672 0.89923,-1.432055 1.37662,-2.207794 0.47738,-0.775739 0.53533,-1.311883 0.77402,-1.490903 0.23869,-0.179 0.35858,-0.297955 0.47792,0.358444 0.11935,0.656399 0.77403,2.626299 0.77403,2.924681 0,0.298358 -0.0569,1.788751 0.18182,3.340251 0,1.312778 0.0573,1.907988 0.17662,3.220764 0.11934,1.312798 0.29624,2.626981 0.41558,3.522081 0.11935,0.895078 0.11948,1.371969 0.11948,1.849348 0,2.446577 0.003,1.671818 0.0623,3.163636 0.0597,1.491819 0.0574,0.656293 0.2961,2.207771 0.23869,1.5515 -0.11907,1.371989 0.23896,1.849349 0.35804,0.47738 0.65775,0.2387 1.19481,0 0.53705,-0.23868 0.5384,-0.717825 1.1948,-1.553224 0.6564,-0.835419 0.83663,-1.010865 1.07533,-1.428584 0.23869,-0.4177 0.83198,-0.717954 1.54804,-1.672713 0.71608,-0.954778 0.65536,-0.775247 1.37143,-1.849368 0.71607,-1.074078 0.72009,-0.774677 1.25715,-1.371414 0.53705,-0.596741 0.47606,-0.540784 1.13246,-1.018185 0.6564,-0.477359 0.65788,-0.652549 1.31428,-1.189587 0.6564,-0.537082 0.29692,-0.361657 1.01299,-0.898718 0.71607,-0.53706 0.95399,-1.011119 1.61039,-1.667518 0.65639,-0.835421 0.95638,-0.834528 1.43376,-1.490905 0.47738,-0.6564 1.36917,-1.314564 1.66753,-1.553265 0.29836,-0.238678 0.003,0.05783 0.0623,0.654569 0.0597,0.596697 -0.18182,0.778016 -0.18182,2.031135 0,1.253141 -0.23643,1.788518 -0.2961,3.101316 -0.0597,1.3128 -0.35605,2.329304 -0.53507,4.11946 -0.17901,1.7902 -0.60006,3.996162 -0.65974,5.189621 -0.0597,1.193439 -0.47792,1.611732 -0.47792,2.805193 0,1.193436 0.2387,1.372756 0,2.566236 -0.23869,1.193438 -0.18448,1.292181 -0.24415,2.425939 -0.0597,1.133801 -0.23138,1.510927 -0.41039,3.122084 0,1.43216 0.0574,1.61118 0.2961,2.327281 0.23869,0.716059 0.48153,0.477635 1.37662,0.238976 0.89509,-0.238699 0.95385,-0.894078 1.49091,-1.371435 0.53705,-0.47738 0.83423,-0.657506 1.25195,-0.955845 0.53705,-0.358041 1.13327,-0.77459 1.84935,-1.251971 0.71606,-0.477357 0.95651,-0.717142 1.55324,-0.955843 0.59672,-0.238679 0.65269,-0.535464 1.30909,-0.893482 0.6564,-0.35804 1.25528,-0.953865 1.91169,-1.490925 0.65639,-0.537061 1.37462,-0.898952 1.91168,-1.137651 0.53705,-0.238701 -3e-4,0.122956 -0.23896,0.898695 -0.23869,0.77574 -0.47846,1.070928 -0.95585,1.78703 -0.47738,0.716058 -1.01339,1.374606 -1.37142,1.911665 -0.35804,0.537061 -0.66014,1.073461 -1.01818,1.729861 -0.35804,0.656399 -0.7719,1.489329 -1.18961,2.384429 -0.41771,0.895078 -1.01632,1.790881 -1.67273,2.924658 -0.65639,1.13378 -1.67073,2.626982 -2.20778,3.522083 -0.53706,0.895076 -1.85242,2.80332 -2.27013,3.45974 -0.41771,0.656398 -1.78741,2.863532 -2.14545,3.937651 -0.30776,0.923248 -0.79136,1.637221 -1.26234,2.207793 0.30647,-3.035893 0.0604,-5.826043 -0.10909,-6.503888 -0.23869,-0.954761 -0.95611,-2.923236 -1.1948,-3.937652 -0.2387,-1.014441 -0.71716,-2.506982 -0.95584,-2.924682 -0.23869,-0.41772 -2.26534,-3.099041 -2.62338,-3.397399 -0.35804,-0.29836 -1.67087,-1.79037 -2.32727,-2.446749 -0.65639,-0.656399 -2.08912,-1.431904 -2.80519,-2.088304 -0.71607,-0.656399 -4.83464,-3.166722 -5.61038,-3.58442 -0.77574,-0.417699 -6.73982,-2.501897 -8.649334,-3.038957 -1.909524,-0.537061 -4.416933,-1.135245 -5.610385,-1.314268 -1.193453,-0.17902 -2.030662,-0.239126 -3.880513,-0.358463 -0.462462,-0.02983 -0.880991,-0.04009 -1.262336,-0.03634 -1.144033,0.01117 -1.959252,0.153426 -2.675324,0.332467 -0.716065,0.238678 -2.266828,0.777227 -3.937656,1.314267 -1.670831,0.537059 -1.969902,0.958801 -2.924662,1.25714 -0.954764,0.298381 -3.462946,1.486115 -3.999997,1.844156 -0.537049,0.358039 -3.998277,3.167104 -4.774006,3.942842 -0.775747,0.775761 -1.671146,2.084497 -2.566248,3.277935 -0.895083,1.193459 -1.787409,2.447429 -2.145444,3.044169 -0.35803,0.596717 -0.837168,1.375564 -1.553249,2.748022 -0.136679,0.261998 -0.207461,0.417784 -0.322065,0.644164 -0.402831,-0.752418 -0.957585,-1.73824 -1.22597,-2.498703 -0.358053,-1.014439 -0.958786,-2.800555 -1.257158,-3.277912 -0.298354,-0.47738 -1.491164,-2.148666 -1.729859,-2.685705 -0.238696,-0.53706 -1.010867,-1.434456 -1.428578,-2.031176 -0.417696,-0.59672 -2.148536,-2.68398 -2.566231,-3.459741 -0.417712,-0.775738 -0.836637,-1.434435 -1.075331,-2.031155 -0.238693,-0.596719 -0.416399,-1.253033 -1.132465,-2.207791 -0.716066,-0.954759 -3.940598,-5.008198 -4.238952,-5.366238 -0.298358,-0.35804 -1.371826,-1.374608 -1.729877,-1.911667 -0.358034,-0.537081 -0.714754,-0.894185 -1.13245,-1.490925 -0.41771,-0.596719 -0.95639,-1.132992 -1.433764,-1.610392 -0.47739,-0.477359 -0.717296,-0.77708 -1.075329,-1.194801 -0.358036,-0.4177 -0.418247,-0.415827 -0.477925,-0.654526 -0.05968,-0.238702 0.60047,-0.241232 1.018182,0.05713 0.417712,0.298381 1.72775,0.89378 2.145444,1.13248 0.417711,0.23868 1.910105,1.374649 2.80519,1.911688 0.895102,0.537038 1.850163,1.309607 2.566248,1.787008 0.716066,0.47738 0.598076,0.600613 1.194786,1.137651 0.596727,0.53704 0.17772,0.177319 1.13248,0.774037 0.954745,0.596718 1.728678,1.491563 2.981796,2.088304 1.014459,0.656399 2.208762,1.434287 3.044186,1.911688 0.835405,0.47738 -0.475495,0.05581 1.672707,1.189587 2.148219,1.1338 2.860349,1.972325 3.397415,2.748065 0.537052,0.775739 0.959316,1.195204 1.735048,1.553243 0.775744,0.358021 2.324476,1.010059 2.145457,0.711699 -0.179015,-0.298381 -0.478602,-2.562683 -1.075314,-3.994822 -0.716082,-1.670818 -1.311897,-3.047212 -1.490915,-3.464912 -0.179019,-0.417699 -1.075598,-1.42952 -1.314276,-2.264941 -0.238694,-0.835419 -1.249693,-2.507363 -1.548068,-3.283102 -0.298355,-0.775761 -0.119868,-1.013801 -0.477922,-1.729882 -0.358032,-0.716079 -0.774544,-1.31282 -1.251934,-2.327259 -0.47739,-1.014418 -0.720093,-1.847774 -1.257142,-2.742874 -0.537052,-0.895077 -0.893771,-1.43201 -1.132466,-2.207771 -0.238696,-0.775738 -0.774299,-2.39028 -1.012996,-2.987021 -0.238675,-0.596718 -0.893503,-1.610392 -0.893503,-1.610392 0,0 1.730274,1.252501 2.088325,1.72988 0.358033,0.47738 1.969216,1.789946 2.327271,2.088327 0.358029,0.298338 1.849744,1.374351 2.207778,1.672711 0.358036,0.298359 1.909559,1.613306 2.327271,1.911687 0.179014,0.477358 1.727881,1.847349 2.264931,2.384408 0.537049,0.537039 1.553784,1.372097 2.031175,1.968836 0.477372,0.596699 0.712362,1.135822 1.309089,1.792202 0.596711,0.656398 1.257937,1.133543 1.974018,2.088302 0.71607,0.95476 1.369699,2.205794 2.145444,2.742853 0.954763,0.53706 1.314275,0.360571 1.314275,-0.05713 -0.298353,-0.895123 -0.358714,-2.804174 -0.597392,-4.17663 -0.238694,-1.372481 -0.535056,-2.208879 -0.535056,-3.163636 0,-0.95476 -3.01e-4,-3.404081 -0.238977,-4.716882 -0.238677,-1.312799 -0.298755,-1.609328 -0.358434,-2.981807 -0.05968,-1.372458 0.176359,-0.775908 -0.06234,-2.446727 -0.238695,-1.670859 -0.477921,-2.385386 -0.477921,-3.220785 0,-0.731002 -0.137608,-1.963663 -0.05195,-2.020797 z M 90.18853,66.113014 c 0.895092,0.05968 1.372779,0.174254 2.56623,0.353252 1.193452,0.17902 3.105447,0.600336 4.477917,0.898717 1.670833,0.358019 6.860743,1.904348 7.755833,2.322069 0.89509,0.417699 3.51995,1.911944 3.93766,2.150643 0.41771,0.238701 1.96937,1.073332 2.44675,1.610393 0.6564,0.47738 1.55125,1.135396 2.08831,1.433756 0.53705,0.298381 2.98276,3.281806 3.81817,4.415563 0.83542,0.895099 1.25741,1.37465 1.4961,1.911709 0.23869,0.537038 0.473,1.070927 0.71169,1.787008 0.23869,0.716059 0.65735,1.852816 0.83636,2.628576 0.17902,0.775719 0.48059,1.728263 0.54026,2.623364 0.0597,0.895078 0.41825,2.328068 0.47793,3.044147 0.0597,0.716081 0.0595,0.837441 -0.11948,1.792199 -0.17903,0.954761 -0.66002,2.027603 -0.89871,3.459741 0,0.11934 -0.23643,0.535593 -0.2961,1.012994 -0.0597,0.47738 -0.12255,0.357529 -0.54026,1.849348 -0.41771,1.491797 -0.85573,1.929027 -1.33311,3.122507 -0.47739,1.19342 -1.23113,2.3066 -1.76818,2.78396 -0.27009,0.24008 -0.9139,1.31254 -1.28874,1.50541 0.0362,-0.20227 0.35191,-1.3505 0.46276,-1.74954 0.39369,-1.41731 0.78308,-4.09388 1.41299,-6.062355 0.31496,-1.810966 0.79043,-3.230104 0.71169,-4.332458 0.0787,-1.023611 0.31606,-1.966433 0.3948,-3.698696 0.0787,-1.732244 -0.23948,-0.553762 0.31169,-2.758428 0.31495,-1.732263 0.3948,-2.98702 0.3948,-2.98702 -0.94486,-0.393677 -0.78856,-0.47355 -1.8909,-0.394784 -1.10235,0.07872 -0.86375,0.07955 -1.72987,-0.07794 -0.55116,-0.157489 -0.71013,-0.471912 -2.36364,-0.550635 -1.6535,-0.07874 -2.20429,-0.236528 -3.54285,-0.47274 -1.33855,-0.236232 -3.38322,-0.554209 -4.24934,-0.711677 -0.86613,-0.157487 -3.26551,-0.266507 -4.21037,-0.345252 -0.944865,-0.07874 -3.021156,-0.439994 -4.280972,-0.361251 -1.259814,0.07874 -4.170992,-0.146255 -5.134616,0 -0.708642,-0.236212 -1.966969,-0.238149 -3.148045,-0.316892 -1.181077,-0.07872 -3.541818,-0.316871 -4.644143,-0.316871 -1.102345,0 -2.990875,-0.0763 -3.620784,-0.233763 -0.629908,-0.157468 -2.049792,-0.233764 -2.758429,-0.233764 -0.708654,-2.1e-5 -1.497813,-0.08311 -2.83636,-0.08311 -1.338544,0 -4.013724,0.0035 -5.194796,0.16102 -1.181072,0.157467 -1.574031,0.550657 -1.574031,0.550657 0,0 -0.316874,3.622164 -0.316874,4.488307 0,0.866121 -0.472735,3.777205 -0.472735,4.722071 0,0.944865 -0.233757,2.286303 -0.233757,3.231168 0,0.944843 0.07956,2.202962 -0.07793,4.171417 -0.157474,1.968446 -0.08147,2.440806 -0.238942,4.015586 -0.025,0.25002 -0.02096,0.46923 -0.02598,0.6961 -0.379645,-0.45651 -0.709218,-0.63968 -0.935065,-0.95584 -0.298354,-0.4177 -1.371559,-2.20863 -1.490899,-2.924683 -0.119354,-0.716079 -0.779503,-2.98502 -1.018179,-3.522081 -0.238696,-0.537059 -0.534941,-3.993077 -0.415584,-4.768815 0.11934,-0.77574 0.298886,-1.970177 0.477923,-3.163617 0.179016,-1.193478 0.242019,-1.076821 0.659731,-2.38962 0.41771,-1.312797 0.473,-1.787561 0.711694,-2.26494 0.537052,-0.83542 0.836753,-0.953993 1.194787,-1.61037 0.35805,-0.656421 1.909575,-3.579911 2.327269,-4.176608 0.417712,-0.596742 1.374637,-1.792902 1.911685,-2.38962 0.537067,-0.596742 1.548734,-1.608415 2.145461,-2.145476 0.596729,-0.537036 1.55418,-1.257819 2.389602,-1.854518 0.835425,-0.59674 1.848037,-1.130501 2.981816,-1.667541 1.133778,-0.53706 4.354721,-1.849878 5.667517,-2.327281 0.716068,-0.238678 2.390155,-0.418378 2.86753,-0.597377 0.238688,-0.08953 1.53248,-0.209147 2.40519,-0.238956 0.872713,-0.02985 1.619986,-0.087 2.067531,-0.05717 z m -12.363614,5.838958 c -0.541953,0.04155 -1.236794,0.234677 -1.553252,0.519484 -0.42195,0.379765 -0.932504,1.139781 -1.101299,1.688308 -0.168775,0.548528 -0.417477,1.639753 -0.290908,2.103899 0.126588,0.464146 0.333218,1.439692 0.62858,1.735051 0.295364,0.295382 1.229995,1.38701 1.651945,1.38701 0.421935,0 1.301442,-0.168232 1.80779,-0.379208 0.506333,-0.210978 1.141677,-0.381339 1.563627,-0.929865 0.42195,-0.464147 0.716251,-0.546317 0.758441,-1.179228 0.04219,-0.632929 0.337671,-1.052735 0.337671,-1.516882 0,-0.464144 -0.337671,-1.563625 -0.337671,-1.563625 -0.590729,-0.801697 -0.461265,-1.181227 -1.220771,-1.392204 -0.759503,-0.210999 -0.885876,-0.33638 -1.392203,-0.420784 -0.126589,-0.02108 -0.671302,-0.06581 -0.85195,-0.05196 z m 0.296096,1.490925 c 0.399544,-0.02968 0.766389,0.184125 1.272735,0.374019 0.675105,0.253167 0.713691,0.465188 0.924675,1.309095 0,0 0.08503,0.970249 -0.04156,1.392204 -0.126587,0.421932 -0.46637,0.71761 -0.88832,1.01297 -0.42195,0.295361 -1.007357,0.633782 -1.724673,0.633782 -0.717315,0 -0.974809,-0.548207 -1.43895,-1.054546 -0.46416,-0.506357 -0.164972,-0.546952 -0.24935,-1.137671 -0.0844,-0.590719 0.08385,-0.59306 0.379211,-1.225969 0.295364,-0.632933 0.75992,-0.883845 1.350648,-1.179225 0.147682,-0.07383 0.282414,-0.114788 0.415583,-0.124659 z m 29.766198,0.477911 c -0.57556,-0.01384 -1.12298,0.122297 -1.40779,0.280531 -0.37975,0.210955 -1.09292,0.8391 -1.3039,1.345436 -0.21097,0.506337 -0.3383,1.564372 -0.2961,1.859752 0.0422,0.29536 -0.0844,1.559902 0,2.150621 0.0844,0.590742 0.58785,1.563117 1.22078,1.942859 0.63292,0.379785 1.18525,0.503912 1.81818,0.503912 0.63292,0 1.93913,-0.212468 2.52986,-0.592209 0.59073,-0.379741 1.47797,-0.968355 1.64675,-1.516882 0.16878,-0.548551 0.50326,-0.717101 0.54546,-1.392203 0.0422,-0.675123 0.0857,-0.883971 -0.0831,-1.516882 -0.16878,-0.632933 -0.33713,-0.80276 -0.71688,-1.309076 -0.37975,-0.506357 -0.25592,-0.339062 -0.50909,-0.592229 -0.25317,-0.253167 -0.58701,-0.462337 -0.58701,-0.462337 -1.09707,-0.379764 -1.52101,-0.464975 -2.28052,-0.633762 -0.18988,-0.04219 -0.38477,-0.06294 -0.57662,-0.06753 z m -29.818146,0.763631 c -0.07911,-0.01055 -0.130926,0.01823 -0.405194,0.187001 -0.54852,0.337571 -0.591577,0.552037 -0.633765,0.805227 -0.04219,0.253147 7.53e-4,0.75778 0.296114,0.799994 0.295346,0.04217 0.884475,0.168766 1.137651,0 0.253174,-0.168808 0.591576,-0.08259 0.633765,-0.462358 -0.08438,-0.464123 0.0811,-0.635144 -0.129863,-0.888292 -0.154597,-0.185529 -0.349836,-0.343849 -0.379226,-0.384423 -0.315166,-0.0068 -0.446238,-0.04738 -0.519482,-0.05715 z m 0.519482,0.05715 c 0.02525,6.02e-4 0.01338,0.0052 0.04156,0.0052 -0.0451,-0.02255 -0.05228,-0.02 -0.04156,-0.0052 z m 30.129824,0.851951 c 0.50634,-0.04221 1.01383,0.21115 1.64676,0.675316 0.63292,0.464144 0.46116,0.460847 0.88311,1.937666 0,0.337551 -0.12541,0.718994 -0.42078,1.267523 -0.29536,0.548528 -0.59241,0.883865 -1.26753,1.179224 -0.67511,0.295361 -2.06509,-0.126679 -2.57142,-0.337655 -0.71732,-0.464147 -0.46308,-0.800207 -0.75844,-1.475331 -0.12659,-0.8861 0.1234,-1.435883 0.20779,-1.98441 0.42195,-0.717315 0.80074,-0.717612 1.0961,-1.012994 0.29537,-0.295359 0.67808,-0.207169 1.18441,-0.249339 z m 0.4052,1.994796 c -0.0969,-0.01319 -0.21596,-0.0057 -0.36364,0.02598 -0.59072,0.126575 -0.92859,0.170234 -1.01298,0.592209 -0.0844,0.421932 0.041,0.757888 0.42078,1.137673 0.37975,0.379741 0.0424,0.298635 0.67532,0.12985 0.63292,-0.168786 0.84675,-0.505933 0.84675,-0.716888 0,-0.210956 -0.1305,-0.506445 -0.0883,-0.337636 -0.0949,-0.537996 -0.18717,-0.791633 -0.47792,-0.831185 z M 73.513235,82.54419 c 0.117178,1.088504 0.0657,2.509281 0,3.625952 -0.07874,1.338567 -0.238961,3.228191 -0.238961,4.015568 0,0.787397 0.234589,5.042303 0.155844,6.223379 -0.07874,1.181077 -0.233774,2.834213 -0.233774,3.542848 0,0.708653 -0.39153,4.486963 -0.706492,5.116893 -0.01932,0.0386 -0.04099,0.0613 -0.06234,0.0987 -0.05964,0.0227 -0.114835,0.0291 -0.176607,0.0572 -0.866126,0.3937 -3.858928,1.10183 -3.937672,0.55066 -0.07873,-0.55119 0,-1.88631 0,-2.83119 0,-0.94485 -0.153916,-2.91596 0.161045,-4.254526 0.314947,-1.338564 -0.0027,-2.123643 -0.23896,-3.225975 -0.236217,-1.102355 0.07875,-3.308042 0,-4.410373 -0.07874,-1.102332 0.632136,-7.559561 0.789609,-7.953239 0,0 0.629974,-0.07711 1.496101,-0.155849 0.866128,-0.07872 1.413584,-0.316084 2.358437,-0.394807 0.275766,-0.02296 0.438706,-0.0069 0.633765,-0.0052 z m 2.166224,0.21817 c 0.754052,0.0911 1.290669,0.130807 2.322082,0.259741 0.45691,0.05711 1.037447,0.112681 1.605184,0.166236 0.194443,0.806418 0.202604,1.429542 0.202604,2.041536 0,0.866122 0.159103,1.020717 -0.155843,2.280537 -0.314964,1.259822 -0.628578,4.566519 -0.628578,5.038942 0,0.472422 -0.55065,2.755468 -0.55065,3.542868 0,0.787377 0.07519,2.442131 -0.161029,3.386995 -0.236219,0.944865 -0.393178,2.206745 -0.550648,3.309085 -0.133455,0.93412 -0.01052,1.58275 -0.249352,2.23896 -0.759388,0.0502 -1.714283,-0.0364 -2.587007,-0.0364 -0.08436,0 -0.128783,-0.004 -0.207793,-0.005 -0.01131,-0.0996 -0.02598,-0.1957 -0.02598,-0.38961 0,-1.02361 -0.312501,-3.78078 -0.233757,-4.883113 0.07874,-1.102355 0.467534,-2.046007 0.467534,-3.62076 0,-1.574798 0.08312,-2.362897 0.08312,-3.937675 0,-1.574774 -0.237032,-2.518725 0.07791,-4.09348 0.314963,-1.574797 0.233775,-1.88854 0.233775,-3.620803 0,-1.082629 0.281548,-1.41801 0.358434,-1.677902 z m 5.942846,0.581824 c 0.370388,0.02409 0.738428,0.05543 1.101299,0.07272 0.980098,0.04666 1.886833,0.121873 2.670128,0.207787 0.0058,0.238573 -0.04262,0.503337 -0.150643,0.971419 -0.236219,1.023588 -0.549833,1.891496 -0.62858,2.836362 -0.07873,0.944843 -0.393989,3.148657 -0.472717,4.093502 -0.07874,0.944864 -0.236518,1.966984 -0.472736,3.14804 -0.236217,1.181076 -0.235685,1.338395 -0.550646,2.519492 -0.314947,1.181076 -0.549835,1.812754 -0.628563,2.836364 -0.07874,1.02357 -0.08149,1.73046 -0.238963,2.67532 -0.15147,0.90876 0.11776,1.10248 -0.280516,1.74544 -0.405296,0.0468 -0.785971,0.092 -1.293514,0.14546 -0.522971,0.055 -0.75894,0.0671 -1.038959,0.0883 -0.02529,-0.21193 -0.06234,-0.38297 -0.06234,-0.63897 0,-0.94487 0.549021,-3.54291 0.706494,-5.038968 0.157472,-1.496033 0.316077,-2.753299 0.394805,-4.249352 0.07874,-1.49599 -0.08038,-1.10329 0.155842,-2.914256 0.236218,-1.811007 0.237332,-2.523639 0.394806,-3.625974 0.157474,-1.102331 -0.31576,-1.25965 0.07793,-2.519491 0.393691,-1.25982 0.0019,-1.414394 0.316874,-2.280495 0.0093,-0.02566 -0.0042,-0.04779 0,-0.07272 z m 8.348044,0.46753 c 0.844255,0.05275 1.354991,0.145553 1.823376,0.244148 -0.02755,0.141977 -0.07446,0.262615 -0.17143,0.618186 -0.236214,0.866122 -1.577585,5.121835 -1.735063,6.145423 -0.157477,1.023609 -1.098849,3.933056 -1.335062,4.877943 -0.236217,0.944842 -0.787976,2.287919 -0.945456,3.075296 -0.157472,0.787398 -0.392352,1.80756 -0.628569,2.83117 -0.236213,1.02361 -0.160518,1.34006 -0.711688,2.36364 -0.03102,0.0576 -0.04482,0.10271 -0.06753,0.15585 -0.480413,0.022 -0.920079,0.16104 -1.823376,0.16104 -0.318138,0 -0.572541,0.0314 -0.851947,0.0468 -0.0011,-0.019 -0.01039,-0.0267 -0.01039,-0.0468 0,-0.70865 0.393992,-2.20838 0.472735,-3.15325 0.07873,-0.94486 0.393975,-1.417137 0.472719,-2.519491 0.07874,-1.102312 -0.08037,-1.022334 0.155843,-2.124666 0.23622,-1.102331 0.311689,-1.72988 0.311689,-1.72988 0,0 0.6305,-2.206283 0.945454,-5.355812 0.551171,-2.440897 0.317179,-2.281408 0.78961,-3.698697 0.158958,-0.635845 0.376212,-1.516734 0.581818,-1.844156 0.726302,0.02249 1.719978,-0.109723 2.727269,-0.04674 z m 4.405189,0.07789 c 0.789552,0 1.624083,0.04534 2.524673,0.270145 -0.121043,0.871166 -0.499018,1.624245 -0.555844,2.249368 -0.07874,0.866101 -0.70679,2.754917 -1.179221,4.09348 -0.472426,1.338544 -0.786341,2.992787 -1.101296,3.937673 -0.314953,0.944845 -0.555027,1.495861 -0.633766,2.519451 -0.07874,1.023609 -0.861517,2.912956 -0.940258,3.542869 -0.05996,0.47968 -0.624313,2.68632 -1.132466,3.85452 -0.177633,0.007 -0.357934,0.018 -0.524676,0.005 -0.610323,-0.0469 -1.517205,-0.0176 -2.358434,-0.0312 -0.02382,-1.48671 0.959494,-5.931338 1.257137,-6.898692 0.314953,-1.023588 0.630501,-2.6803 0.945454,-3.703888 0.314953,-1.023589 1.103226,-3.460337 1.418181,-4.405202 0.314953,-0.944843 0.39072,-1.735669 0.784414,-2.680512 0.393695,-0.944865 0.314432,-0.393764 0.550648,-1.496096 0.219119,-1.022567 -0.137591,-0.592655 0.181818,-1.148055 0.193853,-0.0576 0.421163,-0.109106 0.763636,-0.109106 z m 9.864922,0.581824 c 0.46174,0.0065 0.94362,0.05811 1.44415,0.119489 0.0449,0.291062 -0.0142,0.602635 -0.20779,1.028588 -0.39369,0.866102 -0.78441,1.889562 -0.78441,2.51945 0,0.629911 -0.31444,2.129941 -0.55065,3.625975 -0.23621,1.49603 -0.39236,2.047048 -0.62857,2.519491 -0.23622,0.472421 -0.71006,2.988425 -0.86753,3.854546 -0.15748,0.866099 -0.23652,1.027503 -0.47273,2.129863 -0.23622,1.10233 -0.15777,1.5746 -0.47273,2.51947 -0.29151,0.87455 -0.14705,1.29939 -0.74285,2.29092 -0.0155,-0.003 -0.0312,-0.008 -0.0468,-0.0104 -0.6998,-0.10768 -1.479554,-0.237 -2.22337,-0.34287 0.0083,-0.16217 0.0052,-0.2003 0.02078,-0.44155 0.157478,-2.4409 0.786345,-3.07215 1.101296,-4.883136 0.314954,-1.810989 0.865084,-4.332523 1.101294,-5.828554 0.23622,-1.496033 0.63132,-3.385145 0.86753,-4.566223 0.23622,-1.181098 0.39155,-1.258351 0.7065,-3.148041 0.0752,-0.451081 0.11072,-0.849226 0.11948,-1.205203 0.21083,-0.04645 0.37259,-0.09255 0.67013,-0.135063 0.27558,-0.03938 0.60796,-0.05177 0.96623,-0.04677 z m -5.771421,0.109106 c 1.280642,0.06743 1.616481,0.185362 2.400001,0.249339 0.0353,0.663975 -0.21339,1.17961 -0.27013,1.974028 -0.0787,1.102333 -0.47548,3.225764 -0.711691,4.249352 -0.236217,1.023588 -0.471096,1.887921 -0.628571,2.675322 -0.47243,1.023588 -0.552579,0.710122 -0.867532,2.363642 -0.314955,1.653497 -0.551761,1.968878 -0.945453,3.46491 -0.393695,1.496033 -0.546565,1.970543 -0.940257,3.309103 -0.226484,0.77004 -0.730335,1.2247 -0.945454,1.57923 -0.459233,-0.0382 -0.928015,-0.0727 -1.340259,-0.16105 -0.287019,-0.0615 -0.586763,-0.0823 -0.888309,-0.0779 -0.07045,-0.10747 -0.07604,-0.25596 0.0987,-0.86757 0.314953,-1.10231 0.709238,-2.75738 0.945454,-3.859718 0.472432,-0.787375 0.709238,-1.496691 0.945454,-2.441556 0.314956,-1.023588 0.553392,-2.204005 0.789609,-3.070126 0.236213,-0.866123 0.626939,-2.518961 0.784414,-3.070127 0.157478,-0.551167 0.240074,-1.416307 0.633765,-2.597406 0.393691,-1.181077 0.471096,-1.576244 0.628572,-2.363621 0.121411,-0.607059 0.131696,-0.85493 0.311687,-1.355842 z m 8.519471,0.238978 c 0.16952,0.03636 0.39228,0.05404 0.54026,0.09349 0.91024,0.242723 1.42181,0.463933 1.9948,0.633761 0.11233,0.329785 0.16436,0.690399 -0.0312,1.179205 -0.47243,1.181076 -0.38991,2.909766 -0.86234,5.350664 -0.47243,2.440874 -0.8659,4.251053 -1.02337,5.589597 0,1.810986 -0.39317,2.127196 -0.55065,3.387021 -0.15747,1.2598 -0.15941,1.49503 -0.31688,2.59738 -0.13082,0.91578 -0.11459,1.5002 -0.28052,1.98962 -0.41074,-0.0308 -0.88838,-0.0466 -1.61039,-0.0208 -0.69334,0.0247 -1.20849,-0.0155 -1.66233,-0.0727 -0.1901,-1.15736 0.10159,-3.50479 0.40519,-4.41559 0.31495,-0.94486 1.02174,-5.117176 1.17922,-5.589598 0.15748,-0.472443 0.70924,-2.43777 0.94545,-3.30389 0.23622,-0.866121 0.15859,-1.025907 0.39481,-2.285707 0.23621,-1.25982 0.31525,-2.204833 0.47272,-2.992211 0.15748,-0.7874 0.1534,-1.18063 0.38961,-2.046752 0.01,-0.03615 0.008,-0.05902 0.0156,-0.09349 z m 6.12986,0.722037 c 0.54896,0.03432 0.82912,0.130956 1.06493,0.238978 -0.0726,0.635312 -0.29247,1.08963 -0.67532,2.04675 -0.47243,1.181076 -0.15258,1.650094 -0.46753,2.831171 -0.31496,1.181075 -0.15941,0.948483 -0.31689,1.657137 -0.15747,0.708655 -0.71086,2.675085 -0.78961,3.698697 -0.0787,1.023588 -0.23569,2.438874 -0.55064,3.698695 -0.31496,1.259823 -0.54739,3.625723 -0.86234,4.649353 -0.26523,0.86199 -0.39097,1.15684 -0.82078,1.9013 -0.278,-0.093 -0.58761,-0.18193 -0.9922,-0.24936 -0.40934,-0.0682 -0.657,-0.12114 -0.94546,-0.18182 -0.11728,-1.19355 0.33407,-1.95008 0.94546,-4.70129 0.6299,-2.834599 0.62805,-2.594494 1.17921,-4.877923 0.55118,-2.283409 0.24008,-1.971645 0.63377,-3.703888 0.39369,-1.732243 0.54738,-1.418842 0.86234,-3.859738 0.31495,-2.440876 0.39317,-1.491798 0.55064,-2.909084 0.009,-0.07736 -0.0136,-0.116554 -0.0104,-0.187001 0.37054,-0.04332 0.75838,-0.07923 1.1948,-0.05198 z m 2.4,0.659762 c 0.45866,0.05594 0.47143,-1.29e-4 1.77142,0.129871 0,0 -0.23458,0.787463 -0.15584,1.496095 0.0787,0.708654 -0.15941,0.783888 -0.31688,1.335075 -0.15748,0.551166 -0.46947,1.814391 -0.78442,2.680512 -0.31496,0.866102 -0.55421,3.303656 -0.71169,4.327246 -0.15748,1.023609 -0.31443,3.30806 -0.55064,4.41042 -0.23622,1.10231 -1.26234,6.21816 -1.26234,6.21816 0,0 -0.0728,-0.46999 -1.56883,-0.23376 -0.095,0.015 -0.15288,0.002 -0.23896,0.0104 -7.5e-4,-0.004 7.5e-4,-0.006 0,-0.0104 -0.15748,-0.86612 0.0807,-0.55295 0.31688,-2.83636 0.23622,-2.28343 0.47191,-2.2035 0.55065,-3.62079 0.0787,-1.417285 1.17922,-3.857076 1.17922,-5.116875 0,-1.259798 0.47109,-2.832873 0.62857,-4.171437 0.63557,-1.694817 0.78221,-3.421485 1.14286,-4.618157 z M 84.692441,106.32597 c 2.283404,0 5.036866,0.004 7.241542,0.16102 2.204675,0.15747 3.937801,0.23651 6.929859,0.47275 2.598368,0.31495 4.486748,0.70841 6.140258,1.02335 1.6535,0.31495 4.09327,0.47385 5.11687,0.86755 0.88514,0.34042 1.79047,0.69488 2.72727,1.08571 -0.0744,0.12887 -0.15006,0.28962 -0.22338,0.38962 -0.65639,0.89507 -1.36984,1.31269 -2.26493,2.20777 -1.25313,0.89507 -3.16525,2.51004 -4.5974,3.34544 -1.43213,0.83542 -2.14427,1.24984 -3.39739,1.66754 -1.25313,0.4177 -3.042707,0.48072 -4.05714,0.65974 -0.954762,0 -3.822464,0.057 -5.314278,-0.0623 -1.491816,-0.11934 -4.178512,-1.07308 -5.849345,-1.37144 -2.327227,-0.59672 -4.949598,-1.31482 -6.322071,-1.79218 -1.372474,-0.4774 -3.998679,-1.54622 -5.132459,-2.2026 -1.133761,-0.6564 -1.731071,-1.37771 -2.805192,-2.33247 -1.030212,-0.91573 -1.679289,-1.81971 -2.467518,-2.52468 0.982674,-0.34759 2.414225,-1.00665 4.664926,-1.12206 2.440889,-0.39372 7.326961,-0.47272 9.610378,-0.47272 z"
       id="path946"
       sodipodi:nodetypes="cccccccccccccccccccccccccccccccccccccccccccccccccccccccccccccccccccccccccccccccccccccccccccccccccccccccccccccccccccccccccccccccccccccccccccccccccccccccccccccccccccccccccccccccccccccccccccccccccccccccccccccccccccccccccccccccccccccccccccccccccccccccccccccccccccccccccccccccccccccccccccccccccccccccccccccccccccccccccccccccccccccccccccccccccccccccccccccccccccccccccccccccccccccccccccccccccccccccccccccccccccccccccccccccccccccccccccccccccccccccccccccccccccccccccccccccccccccccccccccccccccccccccccccccccccccccccccccccccccccccccccccccccccccccccccccccccccccccccccccccccccccccccccccccccccccccccccccccccccccccccccccccccccccccccccccccccccc" />
  </g>
</svg>
